<svg xmlns="http://www.w3.org/2000/svg" viewBox="0 0 106 92">
  <defs>
    <linearGradient id="g1" x1="68.8" y1="28.9" x2="10.1" y2="74.8" gradientUnits="userSpaceOnUse"><stop offset="0" stop-color="#FFDD00"/><stop offset=".9" stop-color="#D49F00"/><stop offset="1" stop-color="#FFDD00"/></linearGradient>
    <linearGradient id="g2" x1="70" y1="75.9" x2="27.2" y2="75.9" gradientUnits="userSpaceOnUse"><stop offset="0" stop-color="#D49F00"/><stop offset="1" stop-color="#AB5808"/></linearGradient>
    <linearGradient id="g3" x1="55.9" y1="62.2" x2="114.8" y2="16.4" gradientUnits="userSpaceOnUse"><stop offset="0" stop-color="#00537E"/><stop offset=".9" stop-color="#18AAE2"/><stop offset="1" stop-color="#107BC0"/></linearGradient>
    <linearGradient id="g4" x1="91.8" y1="-4.2" x2="66.8" y2="15.3" gradientUnits="userSpaceOnUse"><stop offset="0" stop-color="#002542"/><stop offset="1" stop-color="#004169"/></linearGradient>
  </defs>
  <path fill="url(#g1)" d="M31.7 91.2h-4c-3.2 0-6.1-1.5-8-3.9L.7 62.9c-.4-.6-.7-1.3-.7-2.1 0-.8.3-1.5.7-2.1l19.1-24.4c1.9-2.4 4.7-3.9 8-3.9H70L46 60.5l-17.5 22.1 3.2 8.6z"/>
  <path fill="url(#g2)" d="M46.3 60.8l-.2-.3L28.5 82.6c-.7.9-1.3 2.1-1.3 4.1 0 2 1.9 4.5 5.7 4.5H70L46.3 60.8z"/>
  <path fill="url(#g3)" d="M96.3 8.6l-3.2-8.6h4c3.2 0 6.1 1.5 8 3.9l19.1 24.4c.4.6.7 1.3.7 2.1 0 .8-.3 1.5-.7 2.1L105 56.9c-1.9 2.4-4.7 3.9-8 3.9H54.8l24-30.1L96.3 8.6z"/>
  <path fill="url(#g4)" d="M78.6 30.4l.2.3L96.3 8.6c.7-.9 1.3-2.1 1.3-4.1 0-2-1.9-4.5-5.7-4.5H54.8l23.8 30.4z"/>
  <path fill="#0BBBEF" d="M97.3 8.2c.7-.9 1.1-1.9 1.1-3.1 0-2.8-2.3-5.1-5.1-5.1H92c2.8 0 5 2.3 5 5.1 0 1.2-.4 2.3-1.1 3.1L78.6 30.4 54.9 60.7 97.3 8.2z"/>
  <path fill="#FFD500" d="M27.6 83c-.7.9-1.1 1.9-1.1 3.1 0 2.8 2.3 5.1 5.1 5.1h1.3c-2.8 0-5.1-2.3-5.1-5.1 0-1.2.4-2.3 1.1-3.1l17.4-22.2L70 30.5 27.6 83z"/>
</svg>
